<?xml version="1.0" standalone="no"?>
<!DOCTYPE svg PUBLIC "-//W3C//DTD SVG 20010904//EN"
 "http://www.w3.org/TR/2001/REC-SVG-20010904/DTD/svg10.dtd">
<svg version="1.0" xmlns="http://www.w3.org/2000/svg"
 width="512.000000pt" height="512.000000pt" viewBox="0 0 512.000000 512.000000"
 preserveAspectRatio="xMidYMid meet">
<metadata>
Created by potrace 1.15, written by Peter Selinger 2001-2017
</metadata>
<g transform="translate(0.000000,512.000000) scale(0.100000,-0.100000)"
fill="#000000" stroke="none">
<path d="M735 4680 c-3 -5 -14 -10 -24 -10 -38 0 -148 -67 -206 -125 -58 -58
-105 -138 -134 -226 -15 -47 -16 -3645 -1 -3654 5 -3 10 -15 10 -26 0 -10 4
-27 9 -37 5 -9 19 -38 31 -64 13 -26 31 -55 41 -64 11 -10 19 -21 19 -26 0
-12 16 -28 60 -58 19 -13 37 -27 40 -30 10 -11 92 -50 106 -50 8 0 14 -4 14
-10 0 -5 20 -10 44 -10 25 0 48 -5 51 -10 9 -14 3511 -14 3520 0 3 6 26 10 50
10 24 0 47 5 50 10 3 6 17 10 31 10 13 0 24 5 24 10 0 6 9 10 20 10 11 0 20 4
20 8 0 5 12 15 27 23 36 18 124 106 142 142 8 15 18 27 23 27 4 0 8 7 8 15 0
8 5 24 10 35 6 11 15 29 20 40 6 11 10 38 10 59 0 22 4 43 10 46 7 4 10 603
10 1765 0 1162 -3 1761 -10 1765 -6 3 -10 21 -10 40 0 19 -4 37 -10 40 -5 3
-10 14 -10 25 0 23 -38 96 -70 135 -58 69 -134 135 -155 135 -8 0 -15 5 -15
10 0 6 -9 10 -20 10 -11 0 -20 5 -20 10 0 6 -15 10 -34 10 -19 0 -38 5 -41 10
-4 7 -622 10 -1820 10 -1198 0 -1816 -3 -1820 -10z m3670 -122 c64 -34 128
-100 155 -160 20 -46 20 -51 20 -1811 0 -2015 9 -1819 -94 -1923 -104 -104 93
-94 -1927 -94 -1938 0 -1805 -4 -1892 60 -49 36 -104 111 -117 159 -6 22 -10
709 -10 1797 -1 1596 0 1765 15 1800 37 91 106 156 195 187 40 15 226 16 1825
14 l1780 -2 50 -27z"/>
<path d="M1950 2640 l0 -320 65 0 64 0 3 83 c2 54 7 82 15 82 6 0 36 -36 66
-80 l54 -80 77 -3 c42 -2 76 0 76 3 0 4 -9 19 -21 33 -30 38 -139 194 -150
214 -7 14 7 35 71 107 44 49 80 92 80 95 0 3 -35 6 -77 5 l-78 0 -55 -66 -55
-66 -3 156 -3 157 -64 0 -65 0 0 -320z"/>
<path d="M750 2625 l0 -305 125 0 c197 0 266 25 300 107 29 69 11 164 -38 198
l-21 15 22 20 c28 27 37 63 34 139 -2 24 -12 44 -39 71 -48 47 -103 60 -263
60 l-120 0 0 -305z m278 173 c17 -17 15 -68 -5 -90 -12 -14 -31 -18 -80 -18
l-63 0 0 60 0 60 68 0 c40 0 73 -5 80 -12z m7 -243 c30 -29 32 -68 5 -95 -16
-16 -33 -20 -90 -20 l-70 0 0 70 0 70 65 0 c57 0 69 -3 90 -25z"/>
<path d="M1707 2873 c-4 -3 -7 -26 -7 -50 0 -43 0 -43 -35 -43 l-35 0 0 -50 0
-50 34 0 33 0 5 -142 c3 -87 9 -152 17 -166 27 -51 105 -75 165 -52 23 8 26
15 26 59 l0 50 -37 3 -38 3 -3 123 -3 122 41 0 40 0 0 50 0 50 -40 0 -40 0 0
50 0 50 -58 0 c-32 0 -62 -3 -65 -7z"/>
<path d="M1376 2778 c-128 -34 -188 -237 -109 -366 71 -118 269 -131 353 -25
l21 27 -38 32 -38 32 -32 -26 c-51 -38 -108 -35 -147 9 l-30 34 142 3 142 3 0
50 c0 79 -19 137 -59 179 -52 55 -119 70 -205 48z"/>
<path d="M2486 2776 c-146 -55 -191 -273 -80 -396 37 -41 103 -70 159 -70 52
0 120 29 156 66 l33 34 -36 37 -36 36 -32 -26 c-43 -37 -110 -38 -145 -2 -14
13 -25 29 -25 35 0 6 48 10 136 10 l137 0 -5 83 c-6 95 -28 143 -84 177 -43
27 -127 35 -178 16z"/>
<path d="M2915 2775 c-49 -17 -107 -80 -123 -133 -15 -49 -15 -135 -1 -187 15
-54 82 -118 142 -135 82 -22 196 9 232 64 19 28 13 43 -26 74 l-29 24 -31 -26
c-21 -18 -42 -26 -69 -26 -52 0 -68 8 -85 41 l-15 28 137 3 138 3 -2 65 c-5
118 -48 186 -131 210 -49 13 -89 12 -137 -5z"/>
<path d="M3383 2775 c-18 -8 -33 -10 -33 -5 0 6 -27 10 -60 10 l-60 0 0 -310
0 -310 65 0 65 0 0 86 c0 78 2 85 18 79 9 -4 37 -9 62 -12 66 -7 124 27 163
95 26 47 29 62 29 140 0 74 -4 96 -25 137 -29 58 -49 78 -96 94 -45 15 -89 13
-128 -4z m70 -106 c34 -15 47 -49 47 -123 0 -82 -23 -116 -80 -116 -55 0 -61
13 -58 126 3 94 4 99 28 111 31 16 33 16 63 2z"/>
<path d="M3808 2779 c-48 -14 -111 -77 -126 -127 -16 -54 -15 -176 2 -215 35
-80 103 -121 201 -122 78 0 141 27 171 73 16 24 15 26 -19 60 l-35 35 -32 -26
c-22 -19 -43 -27 -70 -27 -52 0 -68 8 -86 41 l-15 29 137 0 137 0 -5 84 c-4
70 -9 91 -31 125 -15 22 -41 48 -58 57 -39 20 -123 26 -171 13z"/>
<path d="M4286 2783 c-3 -4 -45 -6 -91 -4 l-85 2 0 -231 0 -230 65 0 65 0 0
150 c0 137 2 152 20 170 14 14 33 20 65 20 l45 0 0 59 c0 44 -4 60 -16 65 -21
8 -59 8 -68 -1z"/>
</g>
</svg>
